<svg xmlns="http://www.w3.org/2000/svg" width="500" height="750" viewBox="0 0 500 750" fill="none">
  <rect width="500" height="750" fill="#E5E5E5"/>
  <path d="M250 300C208 300 175 333 175 375C175 417 208 450 250 450C292 450 325 417 325 375C325 333 292 300 250 300ZM250 425C222 425 200 403 200 375C200 347 222 325 250 325C278 325 300 347 300 375C300 403 278 425 250 425Z" fill="#ADADAD"/>
  <rect x="175" y="470" width="150" height="10" rx="5" fill="#ADADAD"/>
  <rect x="200" y="490" width="100" height="8" rx="4" fill="#D4D4D4"/>
</svg>
